{
    "asset" : {
        "generator" : "Khronos glTF Blender I/O v1.6.16",
        "version" : "2.0"
    },
    "scene" : 0,
    "scenes" : [
        {
            "name" : "Scene",
            "nodes" : [
                0,
                1
            ]
        }
    ],
    "nodes" : [
        {
            "mesh" : 0,
            "name" : "elf2@3x",
            "rotation" : [
                0.7071068286895752,
                0,
                0,
                0.7071068286895752
            ],
            "translation" : [
                0.06301391124725342,
                1.1279523372650146,
                -0.08057227730751038
            ]
        },
        {
            "mesh" : 1,
            "name" : "Cylinder",
            "rotation" : [
                0.5796244144439697,
                0.5656107664108276,
                -0.40255680680274963,
                0.42669427394866943
            ],
            "scale" : [
                0.3103683292865753,
                0.38428911566734314,
                0.31028175354003906
            ],
            "translation" : [
                0.015031218528747559,
                0.3223692774772644,
                0
            ]
        }
    ],
    "materials" : [
        {
            "alphaMode" : "BLEND",
            "doubleSided" : true,
            "name" : "elf2@3x",
            "pbrMetallicRoughness" : {
                "baseColorTexture" : {
                    "index" : 0
                },
                "metallicFactor" : 0,
                "roughnessFactor" : 0.5
            }
        },
        {
            "doubleSided" : true,
            "name" : "Material.003",
            "pbrMetallicRoughness" : {
                "baseColorFactor" : [
                    0.1830691397190094,
                    0.05281108245253563,
                    0.013810246251523495,
                    1
                ],
                "metallicFactor" : 0,
                "roughnessFactor" : 0.5
            }
        },
        {
            "doubleSided" : true,
            "name" : "Material.004",
            "pbrMetallicRoughness" : {
                "baseColorFactor" : [
                    0.8000000715255737,
                    0.17164742946624756,
                    0.016228120774030685,
                    1
                ],
                "metallicFactor" : 0,
                "roughnessFactor" : 0.5
            }
        }
    ],
    "meshes" : [
        {
            "name" : "elf2@3x",
            "primitives" : [
                {
                    "attributes" : {
                        "POSITION" : 0,
                        "NORMAL" : 1,
                        "TEXCOORD_0" : 2
                    },
                    "indices" : 3,
                    "material" : 0
                }
            ]
        },
        {
            "name" : "Cylinder",
            "primitives" : [
                {
                    "attributes" : {
                        "POSITION" : 4,
                        "NORMAL" : 5,
                        "TEXCOORD_0" : 6
                    },
                    "indices" : 7,
                    "material" : 1
                },
                {
                    "attributes" : {
                        "POSITION" : 8,
                        "NORMAL" : 9,
                        "TEXCOORD_0" : 10
                    },
                    "indices" : 11,
                    "material" : 2
                }
            ]
        }
    ],
    "textures" : [
        {
            "sampler" : 0,
            "source" : 0
        }
    ],
    "images" : [
        {
            "bufferView" : 4,
            "mimeType" : "image/png",
            "name" : "elf23x"
        }
    ],
    "accessors" : [
        {
            "bufferView" : 0,
            "componentType" : 5126,
            "count" : 200,
            "max" : [
                0.30000001192092896,
                0.14699989557266235,
                0.5
            ],
            "min" : [
                -0.30000001192092896,
                0,
                -0.5
            ],
            "type" : "VEC3"
        },
        {
            "bufferView" : 1,
            "componentType" : 5126,
            "count" : 200,
            "type" : "VEC3"
        },
        {
            "bufferView" : 2,
            "componentType" : 5126,
            "count" : 200,
            "type" : "VEC2"
        },
        {
            "bufferView" : 3,
            "componentType" : 5123,
            "count" : 300,
            "type" : "SCALAR"
        },
        {
            "bufferView" : 5,
            "componentType" : 5126,
            "count" : 454,
            "max" : [
                1.0649389028549194,
                0.8332326412200928,
                1.0649389028549194
            ],
            "min" : [
                -1.0649389028549194,
                -0.8385205268859863,
                -1.0649389028549194
            ],
            "type" : "VEC3"
        },
        {
            "bufferView" : 6,
            "componentType" : 5126,
            "count" : 454,
            "type" : "VEC3"
        },
        {
            "bufferView" : 7,
            "componentType" : 5126,
            "count" : 454,
            "type" : "VEC2"
        },
        {
            "bufferView" : 8,
            "componentType" : 5123,
            "count" : 948,
            "type" : "SCALAR"
        },
        {
            "bufferView" : 9,
            "componentType" : 5126,
            "count" : 640,
            "max" : [
                1.0649389028549194,
                0.9034600853919983,
                1.0649389028549194
            ],
            "min" : [
                -1.0649389028549194,
                -0.9034600853919983,
                -1.0649389028549194
            ],
            "type" : "VEC3"
        },
        {
            "bufferView" : 10,
            "componentType" : 5126,
            "count" : 640,
            "type" : "VEC3"
        },
        {
            "bufferView" : 11,
            "componentType" : 5126,
            "count" : 640,
            "type" : "VEC2"
        },
        {
            "bufferView" : 12,
            "componentType" : 5123,
            "count" : 1728,
            "type" : "SCALAR"
        }
    ],
    "bufferViews" : [
        {
            "buffer" : 0,
            "byteLength" : 2400,
            "byteOffset" : 0
        },
        {
            "buffer" : 0,
            "byteLength" : 2400,
            "byteOffset" : 2400
        },
        {
            "buffer" : 0,
            "byteLength" : 1600,
            "byteOffset" : 4800
        },
        {
            "buffer" : 0,
            "byteLength" : 600,
            "byteOffset" : 6400
        },
        {
            "buffer" : 0,
            "byteLength" : 13610,
            "byteOffset" : 7000
        },
        {
            "buffer" : 0,
            "byteLength" : 5448,
            "byteOffset" : 20612
        },
        {
            "buffer" : 0,
            "byteLength" : 5448,
            "byteOffset" : 26060
        },
        {
            "buffer" : 0,
            "byteLength" : 3632,
            "byteOffset" : 31508
        },
        {
            "buffer" : 0,
            "byteLength" : 1896,
            "byteOffset" : 35140
        },
        {
            "buffer" : 0,
            "byteLength" : 7680,
            "byteOffset" : 37036
        },
        {
            "buffer" : 0,
            "byteLength" : 7680,
            "byteOffset" : 44716
        },
        {
            "buffer" : 0,
            "byteLength" : 5120,
            "byteOffset" : 52396
        },
        {
            "buffer" : 0,
            "byteLength" : 3456,
            "byteOffset" : 57516
        }
    ],
    "samplers" : [
        {
            "magFilter" : 9729,
            "minFilter" : 9987,
            "wrapS" : 33071,
            "wrapT" : 33071
        }
    ],
    "buffers" : [
        {
            "byteLength" : 60972,
            "uri" : "data:application/octet-stream;base64,"
        }
    ]
}
