{
    "asset" : {
        "generator" : "Khronos glTF Blender I/O v1.6.16",
        "version" : "2.0"
    },
    "scene" : 0,
    "scenes" : [
        {
            "name" : "Scene",
            "nodes" : [
                0,
                1,
                2,
                3,
                4,
                5,
                6
            ]
        }
    ],
    "nodes" : [
        {
            "mesh" : 0,
            "name" : "e1",
            "rotation" : [
                0.7071068286895752,
                0,
                0,
                0.7071068286895752
            ],
            "scale" : [
                1.3302148580551147,
                1.3302148580551147,
                1.3302148580551147
            ],
            "translation" : [
                0,
                0.6713161468505859,
                0
            ]
        },
        {
            "name" : "Mball",
            "scale" : [
                0.33944183588027954,
                0.33944183588027954,
                0.33944183588027954
            ],
            "translation" : [
                -0.3427511751651764,
                2.0599050521850586,
                0.20586621761322021
            ]
        },
        {
            "name" : "Mball.001",
            "scale" : [
                0.23417207598686218,
                0.23417207598686218,
                0.23417207598686218
            ],
            "translation" : [
                0.25542905926704407,
                1.9828338623046875,
                -0.016051992774009705
            ]
        },
        {
            "name" : "Mball.002",
            "scale" : [
                0.23417207598686218,
                0.23417207598686218,
                0.23417207598686218
            ],
            "translation" : [
                -0.8980221748352051,
                1.8847429752349854,
                0.40223246812820435
            ]
        },
        {
            "name" : "Mball.003",
            "scale" : [
                0.23417207598686218,
                0.23417207598686218,
                0.23417207598686218
            ],
            "translation" : [
                0.7442539930343628,
                1.9414491653442383,
                -0.7378889322280884
            ]
        },
        {
            "name" : "Mball.004",
            "scale" : [
                0.15873639285564423,
                0.15873639285564423,
                0.15873639285564423
            ],
            "translation" : [
                1.1125863790512085,
                1.8306446075439453,
                -0.6854928731918335
            ]
        },
        {
            "name" : "Mball.005",
            "scale" : [
                0.15873639285564423,
                0.15873639285564423,
                0.15873639285564423
            ],
            "translation" : [
                0.4108721613883972,
                1.8029433488845825,
                -0.8238184452056885
            ]
        }
    ],
    "materials" : [
        {
            "alphaMode" : "BLEND",
            "doubleSided" : true,
            "name" : "e1",
            "pbrMetallicRoughness" : {
                "baseColorTexture" : {
                    "index" : 0
                },
                "metallicFactor" : 0,
                "roughnessFactor" : 0.5
            }
        }
    ],
    "meshes" : [
        {
            "name" : "e1",
            "primitives" : [
                {
                    "attributes" : {
                        "POSITION" : 0,
                        "NORMAL" : 1,
                        "TEXCOORD_0" : 2
                    },
                    "indices" : 3,
                    "material" : 0
                }
            ]
        }
    ],
    "textures" : [
        {
            "sampler" : 0,
            "source" : 0
        }
    ],
    "images" : [
        {
            "bufferView" : 4,
            "mimeType" : "image/png",
            "name" : "e1"
        }
    ],
    "accessors" : [
        {
            "bufferView" : 0,
            "componentType" : 5126,
            "count" : 4,
            "max" : [
                0.34114977717399597,
                0,
                0.5
            ],
            "min" : [
                -0.34114977717399597,
                0,
                -0.5
            ],
            "type" : "VEC3"
        },
        {
            "bufferView" : 1,
            "componentType" : 5126,
            "count" : 4,
            "type" : "VEC3"
        },
        {
            "bufferView" : 2,
            "componentType" : 5126,
            "count" : 4,
            "type" : "VEC2"
        },
        {
            "bufferView" : 3,
            "componentType" : 5123,
            "count" : 6,
            "type" : "SCALAR"
        }
    ],
    "bufferViews" : [
        {
            "buffer" : 0,
            "byteLength" : 48,
            "byteOffset" : 0
        },
        {
            "buffer" : 0,
            "byteLength" : 48,
            "byteOffset" : 48
        },
        {
            "buffer" : 0,
            "byteLength" : 32,
            "byteOffset" : 96
        },
        {
            "buffer" : 0,
            "byteLength" : 12,
            "byteOffset" : 128
        },
        {
            "buffer" : 0,
            "byteLength" : 18146,
            "byteOffset" : 140
        }
    ],
    "samplers" : [
        {
            "magFilter" : 9729,
            "minFilter" : 9987,
            "wrapS" : 33071,
            "wrapT" : 33071
        }
    ],
    "buffers" : [
        {
            "byteLength" : 18288,
            "uri" : "data:application/octet-stream;base64,"
        }
    ]
}
