{
    "asset" : {
        "generator" : "Khronos glTF Blender I/O v1.6.16",
        "version" : "2.0"
    },
    "scene" : 0,
    "scenes" : [
        {
            "name" : "Scene",
            "nodes" : [
                0,
                1,
                2,
                3,
                4,
                5,
                6,
                7,
                8
            ]
        }
    ],
    "nodes" : [
        {
            "mesh" : 0,
            "name" : "5@2x",
            "rotation" : [
                0.7071068286895752,
                0,
                0,
                0.7071068286895752
            ],
            "translation" : [
                -0.015356779098510742,
                0.5005629062652588,
                0
            ]
        },
        {
            "mesh" : 1,
            "name" : "Cube.003",
            "scale" : [
                0.29224324226379395,
                -0.04478497803211212,
                0.29224324226379395
            ],
            "translation" : [
                0,
                0.17870518565177917,
                0.4371233582496643
            ]
        },
        {
            "mesh" : 2,
            "name" : "Cube.004",
            "scale" : [
                0.27395543456077576,
                -0.01886666566133499,
                0.27395543456077576
            ],
            "translation" : [
                0,
                0.24701175093650818,
                0.4371233582496643
            ]
        },
        {
            "mesh" : 3,
            "name" : "Cube.005",
            "scale" : [
                0.034426890313625336,
                -0.0023708988446742296,
                0.034426890313625336
            ],
            "translation" : [
                0,
                0.2733045816421509,
                0.4371233582496643
            ]
        },
        {
            "mesh" : 4,
            "name" : "Cube.006",
            "scale" : [
                0.034426890313625336,
                -0.0023708988446742296,
                0.034426890313625336
            ],
            "translation" : [
                0.07696452736854553,
                0.2733045816421509,
                0.28044557571411133
            ]
        },
        {
            "mesh" : 5,
            "name" : "Cube.007",
            "scale" : [
                0.034426890313625336,
                -0.0023708988446742296,
                0.034426890313625336
            ],
            "translation" : [
                -0.15942654013633728,
                0.2733045816421509,
                0.33542025089263916
            ]
        },
        {
            "mesh" : 6,
            "name" : "Cube.008",
            "scale" : [
                0.034426890313625336,
                -0.0023708988446742296,
                0.034426890313625336
            ],
            "translation" : [
                -0.12644174695014954,
                0.2733045816421509,
                0.5883036851882935
            ]
        },
        {
            "mesh" : 7,
            "name" : "Cube.009",
            "scale" : [
                0.034426890313625336,
                -0.0023708988446742296,
                0.034426890313625336
            ],
            "translation" : [
                0.14293411374092102,
                0.2733045816421509,
                0.5690625309944153
            ]
        },
        {
            "mesh" : 8,
            "name" : "Cube.010",
            "scale" : [
                0.034426890313625336,
                -0.0023708988446742296,
                0.034426890313625336
            ],
            "translation" : [
                0.18966257572174072,
                0.2733045816421509,
                0.3656562864780426
            ]
        }
    ],
    "materials" : [
        {
            "alphaMode" : "BLEND",
            "doubleSided" : true,
            "name" : "5@2x",
            "pbrMetallicRoughness" : {
                "baseColorTexture" : {
                    "index" : 0
                },
                "metallicFactor" : 0,
                "roughnessFactor" : 0.5
            }
        },
        {
            "doubleSided" : true,
            "name" : "Material.015",
            "pbrMetallicRoughness" : {
                "baseColorFactor" : [
                    0.8000000715255737,
                    0.03441249579191208,
                    0.03152073919773102,
                    1
                ],
                "metallicFactor" : 0,
                "roughnessFactor" : 0.5
            }
        },
        {
            "doubleSided" : true,
            "name" : "Material.016",
            "pbrMetallicRoughness" : {
                "baseColorFactor" : [
                    0.8000000715255737,
                    0.23530299961566925,
                    0,
                    1
                ],
                "metallicFactor" : 0,
                "roughnessFactor" : 0.5
            }
        },
        {
            "doubleSided" : true,
            "name" : "Material.010",
            "pbrMetallicRoughness" : {
                "baseColorFactor" : [
                    0.8000000715255737,
                    0.0006379731930792332,
                    0,
                    1
                ],
                "metallicFactor" : 0,
                "roughnessFactor" : 0.5
            }
        }
    ],
    "meshes" : [
        {
            "name" : "5@2x",
            "primitives" : [
                {
                    "attributes" : {
                        "POSITION" : 0,
                        "NORMAL" : 1,
                        "TEXCOORD_0" : 2
                    },
                    "indices" : 3,
                    "material" : 0
                }
            ]
        },
        {
            "name" : "Cube.004",
            "primitives" : [
                {
                    "attributes" : {
                        "POSITION" : 4,
                        "NORMAL" : 5,
                        "TEXCOORD_0" : 6
                    },
                    "indices" : 7,
                    "material" : 1
                }
            ]
        },
        {
            "name" : "Cube.005",
            "primitives" : [
                {
                    "attributes" : {
                        "POSITION" : 8,
                        "NORMAL" : 9,
                        "TEXCOORD_0" : 10
                    },
                    "indices" : 11,
                    "material" : 2
                }
            ]
        },
        {
            "name" : "Cube.006",
            "primitives" : [
                {
                    "attributes" : {
                        "POSITION" : 12,
                        "NORMAL" : 13,
                        "TEXCOORD_0" : 14
                    },
                    "indices" : 11,
                    "material" : 3
                }
            ]
        },
        {
            "name" : "Cube.007",
            "primitives" : [
                {
                    "attributes" : {
                        "POSITION" : 15,
                        "NORMAL" : 16,
                        "TEXCOORD_0" : 17
                    },
                    "indices" : 11,
                    "material" : 3
                }
            ]
        },
        {
            "name" : "Cube.008",
            "primitives" : [
                {
                    "attributes" : {
                        "POSITION" : 18,
                        "NORMAL" : 19,
                        "TEXCOORD_0" : 20
                    },
                    "indices" : 11,
                    "material" : 3
                }
            ]
        },
        {
            "name" : "Cube.009",
            "primitives" : [
                {
                    "attributes" : {
                        "POSITION" : 21,
                        "NORMAL" : 22,
                        "TEXCOORD_0" : 23
                    },
                    "indices" : 11,
                    "material" : 3
                }
            ]
        },
        {
            "name" : "Cube.010",
            "primitives" : [
                {
                    "attributes" : {
                        "POSITION" : 24,
                        "NORMAL" : 25,
                        "TEXCOORD_0" : 26
                    },
                    "indices" : 11,
                    "material" : 3
                }
            ]
        },
        {
            "name" : "Cube.011",
            "primitives" : [
                {
                    "attributes" : {
                        "POSITION" : 27,
                        "NORMAL" : 28,
                        "TEXCOORD_0" : 29
                    },
                    "indices" : 11,
                    "material" : 3
                }
            ]
        }
    ],
    "textures" : [
        {
            "sampler" : 0,
            "source" : 0
        }
    ],
    "images" : [
        {
            "bufferView" : 4,
            "mimeType" : "image/png",
            "name" : "5@2x"
        }
    ],
    "accessors" : [
        {
            "bufferView" : 0,
            "componentType" : 5126,
            "count" : 200,
            "max" : [
                0.35093167424201965,
                0.14699989557266235,
                0.5
            ],
            "min" : [
                -0.35093167424201965,
                0,
                -0.5
            ],
            "type" : "VEC3"
        },
        {
            "bufferView" : 1,
            "componentType" : 5126,
            "count" : 200,
            "type" : "VEC3"
        },
        {
            "bufferView" : 2,
            "componentType" : 5126,
            "count" : 200,
            "type" : "VEC2"
        },
        {
            "bufferView" : 3,
            "componentType" : 5123,
            "count" : 300,
            "type" : "SCALAR"
        },
        {
            "bufferView" : 5,
            "componentType" : 5126,
            "count" : 24,
            "max" : [
                1,
                1,
                1
            ],
            "min" : [
                -1,
                -1,
                -1
            ],
            "type" : "VEC3"
        },
        {
            "bufferView" : 6,
            "componentType" : 5126,
            "count" : 24,
            "type" : "VEC3"
        },
        {
            "bufferView" : 7,
            "componentType" : 5126,
            "count" : 24,
            "type" : "VEC2"
        },
        {
            "bufferView" : 8,
            "componentType" : 5123,
            "count" : 36,
            "type" : "SCALAR"
        },
        {
            "bufferView" : 9,
            "componentType" : 5126,
            "count" : 1128,
            "max" : [
                1,
                1,
                1
            ],
            "min" : [
                -1,
                -1,
                -1
            ],
            "type" : "VEC3"
        },
        {
            "bufferView" : 10,
            "componentType" : 5126,
            "count" : 1128,
            "type" : "VEC3"
        },
        {
            "bufferView" : 11,
            "componentType" : 5126,
            "count" : 1128,
            "type" : "VEC2"
        },
        {
            "bufferView" : 12,
            "componentType" : 5123,
            "count" : 2244,
            "type" : "SCALAR"
        },
        {
            "bufferView" : 13,
            "componentType" : 5126,
            "count" : 1128,
            "max" : [
                1,
                1,
                1
            ],
            "min" : [
                -1,
                -1,
                -1
            ],
            "type" : "VEC3"
        },
        {
            "bufferView" : 14,
            "componentType" : 5126,
            "count" : 1128,
            "type" : "VEC3"
        },
        {
            "bufferView" : 15,
            "componentType" : 5126,
            "count" : 1128,
            "type" : "VEC2"
        },
        {
            "bufferView" : 16,
            "componentType" : 5126,
            "count" : 1128,
            "max" : [
                1,
                1,
                1
            ],
            "min" : [
                -1,
                -1,
                -1
            ],
            "type" : "VEC3"
        },
        {
            "bufferView" : 17,
            "componentType" : 5126,
            "count" : 1128,
            "type" : "VEC3"
        },
        {
            "bufferView" : 18,
            "componentType" : 5126,
            "count" : 1128,
            "type" : "VEC2"
        },
        {
            "bufferView" : 19,
            "componentType" : 5126,
            "count" : 1128,
            "max" : [
                1,
                1,
                1
            ],
            "min" : [
                -1,
                -1,
                -1
            ],
            "type" : "VEC3"
        },
        {
            "bufferView" : 20,
            "componentType" : 5126,
            "count" : 1128,
            "type" : "VEC3"
        },
        {
            "bufferView" : 21,
            "componentType" : 5126,
            "count" : 1128,
            "type" : "VEC2"
        },
        {
            "bufferView" : 22,
            "componentType" : 5126,
            "count" : 1128,
            "max" : [
                1,
                1,
                1
            ],
            "min" : [
                -1,
                -1,
                -1
            ],
            "type" : "VEC3"
        },
        {
            "bufferView" : 23,
            "componentType" : 5126,
            "count" : 1128,
            "type" : "VEC3"
        },
        {
            "bufferView" : 24,
            "componentType" : 5126,
            "count" : 1128,
            "type" : "VEC2"
        },
        {
            "bufferView" : 25,
            "componentType" : 5126,
            "count" : 1128,
            "max" : [
                1,
                1,
                1
            ],
            "min" : [
                -1,
                -1,
                -1
            ],
            "type" : "VEC3"
        },
        {
            "bufferView" : 26,
            "componentType" : 5126,
            "count" : 1128,
            "type" : "VEC3"
        },
        {
            "bufferView" : 27,
            "componentType" : 5126,
            "count" : 1128,
            "type" : "VEC2"
        },
        {
            "bufferView" : 28,
            "componentType" : 5126,
            "count" : 1128,
            "max" : [
                1,
                1,
                1
            ],
            "min" : [
                -1,
                -1,
                -1
            ],
            "type" : "VEC3"
        },
        {
            "bufferView" : 29,
            "componentType" : 5126,
            "count" : 1128,
            "type" : "VEC3"
        },
        {
            "bufferView" : 30,
            "componentType" : 5126,
            "count" : 1128,
            "type" : "VEC2"
        }
    ],
    "bufferViews" : [
        {
            "buffer" : 0,
            "byteLength" : 2400,
            "byteOffset" : 0
        },
        {
            "buffer" : 0,
            "byteLength" : 2400,
            "byteOffset" : 2400
        },
        {
            "buffer" : 0,
            "byteLength" : 1600,
            "byteOffset" : 4800
        },
        {
            "buffer" : 0,
            "byteLength" : 600,
            "byteOffset" : 6400
        },
        {
            "buffer" : 0,
            "byteLength" : 9245,
            "byteOffset" : 7000
        },
        {
            "buffer" : 0,
            "byteLength" : 288,
            "byteOffset" : 16248
        },
        {
            "buffer" : 0,
            "byteLength" : 288,
            "byteOffset" : 16536
        },
        {
            "buffer" : 0,
            "byteLength" : 192,
            "byteOffset" : 16824
        },
        {
            "buffer" : 0,
            "byteLength" : 72,
            "byteOffset" : 17016
        },
        {
            "buffer" : 0,
            "byteLength" : 13536,
            "byteOffset" : 17088
        },
        {
            "buffer" : 0,
            "byteLength" : 13536,
            "byteOffset" : 30624
        },
        {
            "buffer" : 0,
            "byteLength" : 9024,
            "byteOffset" : 44160
        },
        {
            "buffer" : 0,
            "byteLength" : 4488,
            "byteOffset" : 53184
        },
        {
            "buffer" : 0,
            "byteLength" : 13536,
            "byteOffset" : 57672
        },
        {
            "buffer" : 0,
            "byteLength" : 13536,
            "byteOffset" : 71208
        },
        {
            "buffer" : 0,
            "byteLength" : 9024,
            "byteOffset" : 84744
        },
        {
            "buffer" : 0,
            "byteLength" : 13536,
            "byteOffset" : 93768
        },
        {
            "buffer" : 0,
            "byteLength" : 13536,
            "byteOffset" : 107304
        },
        {
            "buffer" : 0,
            "byteLength" : 9024,
            "byteOffset" : 120840
        },
        {
            "buffer" : 0,
            "byteLength" : 13536,
            "byteOffset" : 129864
        },
        {
            "buffer" : 0,
            "byteLength" : 13536,
            "byteOffset" : 143400
        },
        {
            "buffer" : 0,
            "byteLength" : 9024,
            "byteOffset" : 156936
        },
        {
            "buffer" : 0,
            "byteLength" : 13536,
            "byteOffset" : 165960
        },
        {
            "buffer" : 0,
            "byteLength" : 13536,
            "byteOffset" : 179496
        },
        {
            "buffer" : 0,
            "byteLength" : 9024,
            "byteOffset" : 193032
        },
        {
            "buffer" : 0,
            "byteLength" : 13536,
            "byteOffset" : 202056
        },
        {
            "buffer" : 0,
            "byteLength" : 13536,
            "byteOffset" : 215592
        },
        {
            "buffer" : 0,
            "byteLength" : 9024,
            "byteOffset" : 229128
        },
        {
            "buffer" : 0,
            "byteLength" : 13536,
            "byteOffset" : 238152
        },
        {
            "buffer" : 0,
            "byteLength" : 13536,
            "byteOffset" : 251688
        },
        {
            "buffer" : 0,
            "byteLength" : 9024,
            "byteOffset" : 265224
        }
    ],
    "samplers" : [
        {
            "magFilter" : 9729,
            "minFilter" : 9987,
            "wrapS" : 33071,
            "wrapT" : 33071
        }
    ],
    "buffers" : [
        {
            "byteLength" : 274248,
            "uri" : "data:application/octet-stream;base64,"
        }
    ]
}
